<svg xmlns="http://www.w3.org/2000/svg" viewBox="0 0 24 24" width="128" height="128" role="img" aria-label="TikTok icon">
  <rect width="24" height="24" rx="4" fill="#000" />
  <g transform="translate(5 3)">
    <path d="M6.5 0v6.1c0 2.2 1.7 3.9 3.9 3.9.2 0 .5 0 .7-.1v-2.4c-.2.1-.4.1-.7.1-1 0-1.9-.6-2.4-1.5V2.5H6.5z" fill="#69C9D0" />
    <path d="M11 2.6v5.1c0 .4 0 .8-.1 1.1-.6.1-1.1.2-1.6.2-2.7 0-4.9-2.2-4.9-4.9S6.6 0 9.3 0h.1v2.6c-.3 0-.6 0-1 .0-.1 0-.2 0-.3 0-.3 0-.6.1-.8.2.4-.1.8-.2 1.2-.2.3 0 .6 0 .9.1z" fill="#EE1D52" />
    <path d="M10.7 1.8c.2-.1.5-.1.8-.1V0c-.3 0-.6 0-.9.1-.4.1-.7.2-1 .3v1.5c.3-.1.6-.2 1.1-.2z" fill="#fff" opacity="0.95" />
  </g>
</svg>