<svg xmlns="http://www.w3.org/2000/svg" viewBox="0 0 24 24" width="128" height="128" role="img" aria-label="WhatsApp icon">
  <circle cx="12" cy="12" r="11" fill="#25D366" />
  <path d="M16.2 15.6c-.4-.2-2.4-1.2-2.8-1.3-.4-.1-.6-.2-.9.2s-1 .9-1.2 1.1c-.2.2-.4.3-.8.1-.4-.2-1.6-.6-3-1.8-1.1-1-1.8-2.3-2-2.7-.2-.4 0-.6.2-.8.2-.2.4-.6.6-.9.2-.3.2-.6 0-.9-.2-.3-.9-2.1-1.3-2.9-.3-.7-.7-.6-1-.6h-.9c-.3 0-.8.1-1.2.6-.4.4-1.4 1.4-1.4 3.5s1.4 4.1 1.6 4.4c.2.4 2.6 4 6.4 5.5 3.2 1.3 3.6.9 4.3.9.7 0 2.6-.9 3-2.4.4-1.5.4-2.8.3-3.1-.1-.3-.4-.4-.8-.6z" fill="#fff" />
  <path d="M15.2 8.3a.9.9 0 1 1-.9-.9.9.9 0 0 1 .9.9z" fill="#fff" opacity="0.95" />
</svg>